<svg xmlns="http://www.w3.org/2000/svg" xmlns:xlink="http://www.w3.org/1999/xlink" width="116" height="38.435" viewBox="0 0 116 38.435">
  <defs>
    <linearGradient id="linear-gradient" x1="0.5" x2="0.5" y2="1" gradientUnits="objectBoundingBox">
      <stop offset="0" stop-color="#014842"/>
      <stop offset="1" stop-color="#15624a"/>
    </linearGradient>
  </defs>
  <g id="Group_12439" data-name="Group 12439" transform="translate(-1631.5 -907.677)">
    <path id="Path_49139" data-name="Path 49139" d="M1745.287,946.112h-107.8a1.024,1.024,0,0,1-.817-.472l-4.836-6.749a1.976,1.976,0,0,1-.339-1.14V911.056a1.979,1.979,0,0,1,.339-1.141l1.265-1.766a1.024,1.024,0,0,1,.818-.472H1741.4a1.024,1.024,0,0,1,.817.472l4.94,6.894a1.978,1.978,0,0,1,.339,1.14v26.841a1.976,1.976,0,0,1-.339,1.14l-1.057,1.476A1.024,1.024,0,0,1,1745.287,946.112Z" fill="url(#linear-gradient)"/>
    <path id="Path_49140" data-name="Path 49140" d="M1747.161,915.043l-4.94-6.894a1.024,1.024,0,0,0-.817-.472H1633.922a1.024,1.024,0,0,0-.818.472l-1.265,1.766a1.979,1.979,0,0,0-.339,1.141v26.695a1.976,1.976,0,0,0,.339,1.14l4.836,6.749a1.024,1.024,0,0,0,.817.472h107.8a1.024,1.024,0,0,0,.817-.472l1.057-1.476a1.976,1.976,0,0,0,.339-1.14V916.183A1.978,1.978,0,0,0,1747.161,915.043Zm-1.191,27.476a1.494,1.494,0,0,1-.278.9l-1.1,1.44a.768.768,0,0,1-.6.332H1640.842a.78.78,0,0,1-.622-.36l-6.932-9.672a1.512,1.512,0,0,1-.258-.869v-23.02a1.509,1.509,0,0,1,.258-.868l1.03-1.436a.776.776,0,0,1,.622-.36h103.109a.783.783,0,0,1,.63.371l7.041,10.09a1.515,1.515,0,0,1,.25.857Z" fill="#f05800"/>
  </g>
</svg>
