<svg xmlns="http://www.w3.org/2000/svg" width="214.018" height="53.838" viewBox="0 0 214.018 53.838">
  <g id="Group_12436" data-name="Group 12436" transform="translate(-211.76 -855)">
    <path id="Path_49133" data-name="Path 49133" d="M422.677,908.838H220.154a1.431,1.431,0,0,1-1.145-.662l-6.775-9.452a2.782,2.782,0,0,1-.474-1.6V859.733a2.782,2.782,0,0,1,.474-1.6l1.773-2.473a1.434,1.434,0,0,1,1.145-.662H417.238a1.433,1.433,0,0,1,1.145.662l6.92,9.656a2.773,2.773,0,0,1,.475,1.6v37.6a2.773,2.773,0,0,1-.475,1.6l-1.481,2.066A1.431,1.431,0,0,1,422.677,908.838Z" fill="#07dcf1" opacity="0.25"/>
    <path id="Path_49134" data-name="Path 49134" d="M425.3,865.318l-6.92-9.656a1.433,1.433,0,0,0-1.145-.662H215.152a1.434,1.434,0,0,0-1.145.662l-1.773,2.473a2.782,2.782,0,0,0-.474,1.6v37.393a2.782,2.782,0,0,0,.474,1.6l6.775,9.452a1.431,1.431,0,0,0,1.145.662H422.677a1.431,1.431,0,0,0,1.145-.662l1.481-2.066a2.773,2.773,0,0,0,.475-1.6v-37.6A2.773,2.773,0,0,0,425.3,865.318Zm-1.669,38.488a2.089,2.089,0,0,1-.39,1.255l-1.541,2.016a1.074,1.074,0,0,1-.843.465H224.846a1.088,1.088,0,0,1-.871-.5l-9.71-13.548a2.115,2.115,0,0,1-.361-1.217V860.028a2.114,2.114,0,0,1,.361-1.216l1.442-2.012a1.088,1.088,0,0,1,.871-.5H412.539a1.1,1.1,0,0,1,.883.52l9.863,14.134a2.12,2.12,0,0,1,.349,1.2Z" fill="#07dcf1"/>
  </g>
</svg>
