<svg xmlns="http://www.w3.org/2000/svg" xmlns:xlink="http://www.w3.org/1999/xlink" width="116" height="38.435" viewBox="0 0 116 38.435">
  <defs>
    <linearGradient id="linear-gradient" x1="0.5" x2="0.5" y2="1" gradientUnits="objectBoundingBox">
      <stop offset="0" stop-color="#014842"/>
      <stop offset="1" stop-color="#15624a"/>
    </linearGradient>
  </defs>
  <g id="Group_12437" data-name="Group 12437" transform="translate(-776 -907.677)">
    <path id="Path_49135" data-name="Path 49135" d="M889.787,946.112H781.992a1.024,1.024,0,0,1-.817-.472l-4.836-6.749a1.976,1.976,0,0,1-.339-1.14V911.056a1.98,1.98,0,0,1,.339-1.141l1.265-1.766a1.024,1.024,0,0,1,.818-.472H885.9a1.024,1.024,0,0,1,.817.472l4.94,6.894a1.978,1.978,0,0,1,.339,1.14v26.841a1.976,1.976,0,0,1-.339,1.14L890.6,945.64A1.024,1.024,0,0,1,889.787,946.112Z" fill="url(#linear-gradient)"/>
    <path id="Path_49136" data-name="Path 49136" d="M891.661,915.043l-4.94-6.894a1.024,1.024,0,0,0-.817-.472H778.422a1.024,1.024,0,0,0-.818.472l-1.265,1.766a1.98,1.98,0,0,0-.339,1.141v26.695a1.976,1.976,0,0,0,.339,1.14l4.836,6.749a1.024,1.024,0,0,0,.817.472H889.787a1.024,1.024,0,0,0,.817-.472l1.057-1.476a1.976,1.976,0,0,0,.339-1.14V916.183A1.978,1.978,0,0,0,891.661,915.043Zm-1.191,27.476a1.494,1.494,0,0,1-.278.9l-1.1,1.44a.768.768,0,0,1-.6.332H785.342a.78.78,0,0,1-.622-.36l-6.932-9.672a1.512,1.512,0,0,1-.258-.869v-23.02a1.508,1.508,0,0,1,.258-.868l1.03-1.436a.776.776,0,0,1,.622-.36H882.549a.783.783,0,0,1,.63.371l7.041,10.09a1.515,1.515,0,0,1,.25.857Z" fill="#07dcf1"/>
  </g>
</svg>
