<svg xmlns="http://www.w3.org/2000/svg" width="253.453" height="3.736" viewBox="0 0 253.453 3.736">
  <g id="Group_12605" data-name="Group 12605" transform="translate(-707.273 -960.621)">
    <g id="Group_12378" data-name="Group 12378">
      <path id="Path_48864" data-name="Path 48864" d="M710.387,964.358h-3.114l3.736-3.736h3.114Z" fill="#fff"/>
      <path id="Path_48865" data-name="Path 48865" d="M716.692,964.358h-3.114l3.736-3.736h3.114Z" fill="#fff"/>
      <path id="Path_48866" data-name="Path 48866" d="M723,964.358h-3.114l3.736-3.736h3.114Z" fill="#fff"/>
      <path id="Path_48867" data-name="Path 48867" d="M729.3,964.358h-3.114l3.736-3.736h3.114Z" fill="#fff"/>
      <path id="Path_48868" data-name="Path 48868" d="M735.608,964.358h-3.114l3.736-3.736h3.114Z" fill="#fff"/>
      <path id="Path_48869" data-name="Path 48869" d="M741.913,964.358H738.8l3.736-3.736h3.114Z" fill="#fff"/>
      <path id="Path_48870" data-name="Path 48870" d="M748.218,964.358H745.1l3.736-3.736h3.114Z" fill="#fff"/>
      <path id="Path_48871" data-name="Path 48871" d="M754.523,964.358H751.41l3.736-3.736h3.114Z" fill="#fff"/>
      <path id="Path_48872" data-name="Path 48872" d="M760.829,964.358h-3.114l3.736-3.736h3.114Z" fill="#fff"/>
    </g>
    <g id="Group_12379" data-name="Group 12379">
      <path id="Path_48873" data-name="Path 48873" d="M957.613,964.358h3.114l-3.736-3.736h-3.114Z" fill="#fff"/>
      <path id="Path_48874" data-name="Path 48874" d="M951.308,964.358h3.114l-3.736-3.736h-3.114Z" fill="#fff"/>
      <path id="Path_48875" data-name="Path 48875" d="M945,964.358h3.114l-3.736-3.736h-3.114Z" fill="#fff"/>
      <path id="Path_48876" data-name="Path 48876" d="M938.7,964.358h3.114l-3.736-3.736h-3.114Z" fill="#fff"/>
      <path id="Path_48877" data-name="Path 48877" d="M932.392,964.358h3.114l-3.736-3.736h-3.114Z" fill="#fff"/>
      <path id="Path_48878" data-name="Path 48878" d="M926.087,964.358H929.2l-3.736-3.736H922.35Z" fill="#fff"/>
      <path id="Path_48879" data-name="Path 48879" d="M919.782,964.358H922.9l-3.736-3.736h-3.114Z" fill="#fff"/>
      <path id="Path_48880" data-name="Path 48880" d="M913.477,964.358h3.114l-3.736-3.736H909.74Z" fill="#fff"/>
      <path id="Path_48881" data-name="Path 48881" d="M907.171,964.358h3.114l-3.736-3.736h-3.114Z" fill="#fff"/>
    </g>
    <path id="Path_48882" data-name="Path 48882" d="M899.7,960.621H768.3l-3.736,3.736h138.87Z" fill="#07dcf1"/>
  </g>
</svg>
