<svg xmlns="http://www.w3.org/2000/svg" width="16.808" height="16.794" viewBox="0 0 16.808 16.794">
  <g id="Group_12602" data-name="Group 12602" transform="translate(-1440.096 -53.183)">
    <g id="Group_12600" data-name="Group 12600">
      <path id="Path_49286" data-name="Path 49286" d="M1447.721,63.331l-.026-.312a2.753,2.753,0,0,1,.744-2.074,2.637,2.637,0,0,0,.84-1.644c0-.611-.384-1.019-1.138-1.031a2.126,2.126,0,0,0-1.213.372l-.287-.756a3.144,3.144,0,0,1,1.714-.479,1.773,1.773,0,0,1,2,1.762,3.245,3.245,0,0,1-1.033,2.087,2.371,2.371,0,0,0-.683,1.763l.013.312Zm-.266,1.679a.71.71,0,0,1,.721-.756.75.75,0,1,1-.721.756Z" fill="#ff7bac"/>
    </g>
    <g id="Group_12601" data-name="Group 12601">
      <path id="Path_49287" data-name="Path 49287" d="M1452.244,69.977h-7.488l-4.66-5.995,1.662-7.468,6.742-3.331,6.742,3.331,1.662,7.468Zm-7.121-.75h6.754L1456.1,63.8l-1.508-6.772L1448.5,54.02l-6.088,3.008L1440.9,63.8Z" fill="#ff7bac"/>
    </g>
  </g>
</svg>
