<svg xmlns="http://www.w3.org/2000/svg" width="352.006" height="352.005" viewBox="0 0 352.006 352.005">
  <g id="Group_6175" data-name="Group 6175" transform="translate(-3005.997 -390.249)" opacity="0.2">
    <path id="Path_23759" data-name="Path 23759" d="M3328.669,495.85h-29.334v88A29.333,29.333,0,0,1,3270,613.185h-41.067v29.334a5.937,5.937,0,0,1-2.875,5.046,6.049,6.049,0,0,1-2.992.821,5.864,5.864,0,0,1-2.816-.7l-63.185-34.5H3076.4V677.72a17.653,17.653,0,0,0,17.6,17.6h46.934a5.866,5.866,0,0,1,5.866,5.867v25.344l55.852-30.507a5.865,5.865,0,0,1,2.816-.7h123.2a17.653,17.653,0,0,0,17.6-17.6V513.451A17.653,17.653,0,0,0,3328.669,495.85Zm-211.2,129.069h41.067a5.866,5.866,0,1,1,0,11.733h-41.067a5.866,5.866,0,1,1,0-11.733ZM3305.2,671.853H3117.466a5.867,5.867,0,0,1,0-11.734H3305.2a5.867,5.867,0,1,1,0,11.734Zm0-35.2h-58.668a5.866,5.866,0,0,1,0-11.733H3305.2a5.866,5.866,0,1,1,0,11.733Z" fill="#fff"/>
    <path id="Path_23760" data-name="Path 23760" d="M3328.669,484.117h-29.334V419.582A29.333,29.333,0,0,0,3270,390.249h-234.67A29.334,29.334,0,0,0,3006,419.582v164.27a29.334,29.334,0,0,0,29.334,29.333h29.334V677.72A29.333,29.333,0,0,0,3094,707.053h41.067v29.334a5.937,5.937,0,0,0,2.875,5.046,6.05,6.05,0,0,0,2.992.821,5.864,5.864,0,0,0,2.816-.7l63.185-34.5h121.735A29.334,29.334,0,0,0,3358,677.72V513.451A29.334,29.334,0,0,0,3328.669,484.117ZM3035.331,601.452a17.653,17.653,0,0,1-17.6-17.6V419.582a17.653,17.653,0,0,1,17.6-17.6H3270a17.653,17.653,0,0,1,17.6,17.6v164.27a17.653,17.653,0,0,1-17.6,17.6h-46.934a5.866,5.866,0,0,0-5.866,5.867v25.344l-55.852-30.507a5.865,5.865,0,0,0-2.816-.7Zm316.8,76.268a23.468,23.468,0,0,1-23.467,23.467h-123.2l-64.534,35.2v-35.2H3094a23.467,23.467,0,0,1-23.467-23.467v-70.4h88l64.534,35.2v-35.2H3270a23.467,23.467,0,0,0,23.467-23.467V489.984h35.2a23.467,23.467,0,0,1,23.467,23.467Z" fill="#fff"/>
    <path id="Path_23761" data-name="Path 23761" d="M3328.669,489.984h-35.2v93.868A23.467,23.467,0,0,1,3270,607.319h-46.934v35.2l-64.534-35.2h-88v70.4A23.467,23.467,0,0,0,3094,701.187h46.934v35.2l64.534-35.2h123.2a23.468,23.468,0,0,0,23.467-23.467V513.451A23.467,23.467,0,0,0,3328.669,489.984Zm17.6,187.736a17.653,17.653,0,0,1-17.6,17.6h-123.2a5.865,5.865,0,0,0-2.816.7L3146.8,726.531V701.187a5.866,5.866,0,0,0-5.866-5.867H3094a17.653,17.653,0,0,1-17.6-17.6V613.185h80.668l63.185,34.5a5.864,5.864,0,0,0,2.816.7,6.049,6.049,0,0,0,2.992-.821,5.937,5.937,0,0,0,2.875-5.046V613.185H3270a29.333,29.333,0,0,0,29.334-29.333v-88h29.334a17.653,17.653,0,0,1,17.6,17.6Z" fill="#fff"/>
    <path id="Path_23762" data-name="Path 23762" d="M3082.265,425.449H3058.8a5.867,5.867,0,1,0,0,11.734h23.467a5.867,5.867,0,1,0,0-11.734Z" fill="#fff"/>
    <path id="Path_23763" data-name="Path 23763" d="M3105.732,437.183h140.8a5.867,5.867,0,0,0,0-11.734h-140.8a5.867,5.867,0,0,0,0,11.734Z" fill="#fff"/>
    <path id="Path_23764" data-name="Path 23764" d="M3082.265,460.65H3058.8a5.867,5.867,0,1,0,0,11.733h23.467a5.867,5.867,0,1,0,0-11.733Z" fill="#fff"/>
    <path id="Path_23765" data-name="Path 23765" d="M3105.732,472.383h140.8a5.867,5.867,0,1,0,0-11.733h-140.8a5.867,5.867,0,1,0,0,11.733Z" fill="#fff"/>
    <path id="Path_23766" data-name="Path 23766" d="M3082.265,495.85H3058.8a5.867,5.867,0,1,0,0,11.734h23.467a5.867,5.867,0,1,0,0-11.734Z" fill="#fff"/>
    <path id="Path_23767" data-name="Path 23767" d="M3105.732,507.584h140.8a5.867,5.867,0,0,0,0-11.734h-140.8a5.867,5.867,0,0,0,0,11.734Z" fill="#fff"/>
    <path id="Path_23768" data-name="Path 23768" d="M3082.265,531.051H3058.8a5.866,5.866,0,1,0,0,11.733h23.467a5.866,5.866,0,1,0,0-11.733Z" fill="#fff"/>
    <path id="Path_23769" data-name="Path 23769" d="M3105.732,542.784h140.8a5.866,5.866,0,1,0,0-11.733h-140.8a5.866,5.866,0,1,0,0,11.733Z" fill="#fff"/>
    <path id="Path_23770" data-name="Path 23770" d="M3082.265,566.251H3058.8a5.867,5.867,0,1,0,0,11.734h23.467a5.867,5.867,0,1,0,0-11.734Z" fill="#fff"/>
    <path id="Path_23771" data-name="Path 23771" d="M3252.4,572.118a5.867,5.867,0,0,0-5.867-5.867h-140.8a5.867,5.867,0,0,0,0,11.734h140.8A5.867,5.867,0,0,0,3252.4,572.118Z" fill="#fff"/>
  </g>
</svg>
