<svg xmlns="http://www.w3.org/2000/svg" width="16.013" height="16" viewBox="0 0 16.013 16">
  <g id="Group_12579" data-name="Group 12579" transform="translate(-1540.494 -53.58)">
    <path id="Path_49258" data-name="Path 49258" d="M1554.4,65.372a2.111,2.111,0,1,0,2.112,2.111A2.113,2.113,0,0,0,1554.4,65.372Z" fill="#ff7bac"/>
    <path id="Path_49259" data-name="Path 49259" d="M1553.808,60.141l1.016-.743.24.415a.469.469,0,0,0,.812-.469l-3.192-5.529a.469.469,0,0,0-.812.47l.24.415-1.152.508Z" fill="#ff7bac"/>
    <path id="Path_49260" data-name="Path 49260" d="M1547.53,61.4a4.051,4.051,0,0,1,2.9,1.217l2.619-1.918-2.95-5.109-3.793,1.672a3.6,3.6,0,0,0-2.414-1.18.469.469,0,0,0-.066.936,2.654,2.654,0,0,1,1.559.65l-2.6,1.147a3.843,3.843,0,0,0,.727,7.258,4.079,4.079,0,0,1,4.02-4.673Z" fill="#ff7bac"/>
    <path id="Path_49261" data-name="Path 49261" d="M1547.53,62.337a3.128,3.128,0,1,0,3.128,3.128A3.128,3.128,0,0,0,1547.53,62.337Zm0,4.848a1.72,1.72,0,1,1,1.721-1.72A1.722,1.722,0,0,1,1547.53,67.185Z" fill="#ff7bac"/>
    <path id="Path_49262" data-name="Path 49262" d="M1547.53,64.683a.781.781,0,1,0,.782.782A.782.782,0,0,0,1547.53,64.683Z" fill="#ff7bac"/>
    <path id="Path_49263" data-name="Path 49263" d="M1541.822,57.162l-.813.469a.469.469,0,0,0,.469.813l.813-.469A.469.469,0,0,0,1541.822,57.162Z" fill="#ff7bac"/>
    <path id="Path_49264" data-name="Path 49264" d="M1540.841,56.355l.907.243a.469.469,0,0,0,.242-.907l-.906-.243a.469.469,0,0,0-.243.907Z" fill="#ff7bac"/>
    <path id="Path_49265" data-name="Path 49265" d="M1542.337,55.24a.47.47,0,0,0,.813-.47l-.47-.812a.469.469,0,1,0-.812.469Z" fill="#ff7bac"/>
  </g>
</svg>
