<svg xmlns="http://www.w3.org/2000/svg" width="17.949" height="16" viewBox="0 0 17.949 16">
  <g id="Group_12572" data-name="Group 12572" transform="translate(-1839.526 -53.58)">
    <g id="Group_12569" data-name="Group 12569">
      <g id="Group_12568" data-name="Group 12568">
        <path id="Path_49250" data-name="Path 49250" d="M1857.284,59.9l-8.508-6.23a.467.467,0,0,0-.551,0l-8.509,6.23a.466.466,0,0,0,.551.752l8.233-6.028,8.233,6.028a.466.466,0,0,0,.551-.752Z" fill="#ff7bac"/>
      </g>
    </g>
    <g id="Group_12571" data-name="Group 12571">
      <g id="Group_12570" data-name="Group 12570">
        <path id="Path_49251" data-name="Path 49251" d="M1855.029,60.758a.466.466,0,0,0-.466.466v7.423h-3.731V64.6a2.332,2.332,0,0,0-4.664,0v4.052h-3.731V61.224a.466.466,0,0,0-.932,0v7.89a.466.466,0,0,0,.466.466h4.663a.466.466,0,0,0,.465-.43c0-.011,0-.023,0-.036V64.6a1.4,1.4,0,0,1,2.8,0v4.519c0,.013,0,.025,0,.036a.466.466,0,0,0,.465.43h4.663a.467.467,0,0,0,.467-.466v-7.89A.466.466,0,0,0,1855.029,60.758Z" fill="#ff7bac"/>
      </g>
    </g>
  </g>
</svg>
