<svg xmlns="http://www.w3.org/2000/svg" width="40.5" height="54" viewBox="0 0 40.5 54">
  <path id="Path_23812" data-name="Path 23812" d="M530.945,582.1h2.11c.862.145,1.736.243,2.586.444a15.723,15.723,0,0,1,12.082,14.961c.024,1.423.013,2.847.02,4.27,0,.184.016.368.025.575h2.963c1.136,0,1.518.383,1.518,1.518q0,13.71,0,27.418a4.532,4.532,0,0,1-4.827,4.812q-15.422,0-30.844,0a4.532,4.532,0,0,1-4.827-4.812q0-13.709,0-27.418c0-1.135.382-1.517,1.518-1.518h2.989c0-1.427.008-2.794,0-4.16A15.763,15.763,0,0,1,527.7,582.733C528.756,582.43,529.863,582.307,530.945,582.1Zm10.047,20.22c0-1.36.024-2.692-.009-4.022a11.9,11.9,0,0,0-.212-2.353,8.974,8.974,0,0,0-17.737,1.442c-.045,1.546-.02,3.093-.023,4.64a2.09,2.09,0,0,0,.041.293Zm-9.029,24.786c.668,0,1.335.008,2,0,1.047-.014,1.495-.548,1.375-1.579q-.336-2.877-.635-5.759a.655.655,0,0,1,.191-.481,4.495,4.495,0,0,0-3.929-7.8,4.5,4.5,0,0,0-1.882,7.791.712.712,0,0,1,.2.525c-.2,1.922-.412,3.841-.632,5.759a1.223,1.223,0,0,0,1.357,1.547C530.663,627.117,531.313,627.108,531.963,627.108Z" transform="translate(-511.75 -582.102)" fill="#0aa5a0"/>
</svg>
