<svg xmlns="http://www.w3.org/2000/svg" width="13.072" height="15.686" viewBox="0 0 13.072 15.686">
  <g id="Group_12574" data-name="Group 12574" transform="translate(-1741.532 -53.894)">
    <path id="Path_49253" data-name="Path 49253" d="M1748.068,69.58a2.455,2.455,0,0,0,2.4-1.961h-4.8A2.454,2.454,0,0,0,1748.068,69.58Z" fill="#ff7bac"/>
    <path id="Path_49254" data-name="Path 49254" d="M1752.2,61.423a4.569,4.569,0,0,1-3.655-7.319.646.646,0,0,0-.477-.21.653.653,0,0,0-.654.653v.706a4.578,4.578,0,0,0-3.921,4.523V61.6a4.382,4.382,0,0,1-1.561,3.355,1.144,1.144,0,0,0,.744,2.013h10.784a1.144,1.144,0,0,0,.738-2.018,4.378,4.378,0,0,1-1.555-3.35v-.2C1752.5,61.415,1752.35,61.423,1752.2,61.423Z" fill="#ff7bac"/>
  </g>
</svg>
