<svg xmlns="http://www.w3.org/2000/svg" width="16" height="16" viewBox="0 0 16 16">
  <g id="Group_12573" data-name="Group 12573" transform="translate(-1640.5 -53.58)">
    <path id="Path_49252" data-name="Path 49252" d="M1655.623,59.843l-1.254-.16a6.253,6.253,0,0,0-.379-.916l.774-1a.992.992,0,0,0-.081-1.32l-1.05-1.05a1,1,0,0,0-1.324-.084l-.995.774a6.338,6.338,0,0,0-.917-.38l-.159-1.251a1,1,0,0,0-.991-.88h-1.493a1,1,0,0,0-.991.878l-.159,1.253a6.184,6.184,0,0,0-.917.38l-1-.774a.992.992,0,0,0-1.32.081l-1.05,1.049a.993.993,0,0,0-.084,1.324l.774,1a6.258,6.258,0,0,0-.38.916l-1.251.16a1,1,0,0,0-.88.99v1.494a1,1,0,0,0,.878.99l1.253.16a6.38,6.38,0,0,0,.38.916l-.774,1a.991.991,0,0,0,.081,1.32l1.05,1.05a1,1,0,0,0,1.324.084l1-.774a6.211,6.211,0,0,0,.916.379l.159,1.251a1,1,0,0,0,.991.881h1.493a1,1,0,0,0,.991-.878l.159-1.253a6.325,6.325,0,0,0,.916-.38l1,.774a.99.99,0,0,0,1.319-.081l1.05-1.05a.992.992,0,0,0,.085-1.323l-.774-1a6.148,6.148,0,0,0,.379-.916l1.251-.16a1,1,0,0,0,.88-.99V60.833a1,1,0,0,0-.877-.99Zm-7.131,5.07a3.333,3.333,0,1,1,3.333-3.333,3.337,3.337,0,0,1-3.333,3.333Z" fill="#ff7bac"/>
  </g>
</svg>
